<svg xmlns="http://www.w3.org/2000/svg" viewBox="0 0 512 512">
  <rect width="512" height="512" rx="96" fill="#11675f"/>
  <path fill="#fff" d="M118 122h276a34 34 0 0 1 34 34v184a34 34 0 0 1-34 34H248l-76 54v-54h-54a34 34 0 0 1-34-34V156a34 34 0 0 1 34-34Z"/>
  <path fill="#11675f" d="M147 200h73v-32h43v32h79v39h-25a169 169 0 0 1-43 68c18 10 39 18 65 23l-20 40a207 207 0 0 1-80-35 223 223 0 0 1-83 35l-18-40c27-5 49-13 67-23a151 151 0 0 1-34-46l36-15a107 107 0 0 0 31 37 115 115 0 0 0 31-44H147v-39Z"/>
</svg>
